<?xml version="1.0" encoding="utf-8" standalone="no"?>
<!DOCTYPE svg PUBLIC "-//W3C//DTD SVG 1.1//EN"
  "http://www.w3.org/Graphics/SVG/1.1/DTD/svg11.dtd">
<svg xmlns:xlink="http://www.w3.org/1999/xlink" width="855.75625pt" height="354.15625pt" viewBox="0 0 855.75625 354.15625" xmlns="http://www.w3.org/2000/svg" version="1.1">
 <metadata>
  <rdf:RDF xmlns:dc="http://purl.org/dc/elements/1.1/" xmlns:cc="http://creativecommons.org/ns#" xmlns:rdf="http://www.w3.org/1999/02/22-rdf-syntax-ns#">
   <cc:Work>
    <dc:type rdf:resource="http://purl.org/dc/dcmitype/StillImage"/>
    <dc:date>2026-05-17T22:10:36.638261</dc:date>
    <dc:format>image/svg+xml</dc:format>
    <dc:creator>
     <cc:Agent>
      <dc:title>Matplotlib v3.10.8, https://matplotlib.org/</dc:title>
     </cc:Agent>
    </dc:creator>
   </cc:Work>
  </rdf:RDF>
 </metadata>
 <defs>
  <style type="text/css">*{stroke-linejoin: round; stroke-linecap: butt}</style>
 </defs>
 <g id="figure_1">
  <g id="patch_1">
   <path d="M 0 354.15625 
L 855.75625 354.15625 
L 855.75625 0 
L 0 0 
z
" style="fill: #ffffff"/>
  </g>
  <g id="axes_1">
   <g id="patch_2">
    <path d="M 43.78125 316.6 
L 439.01875 316.6 
L 439.01875 48.6 
L 43.78125 48.6 
z
" style="fill: #ffffff"/>
   </g>
   <g id="matplotlib.axis_1">
    <g id="xtick_1">
     <g id="line2d_1">
      <path d="M 61.746591 316.6 
L 61.746591 48.6 
" clip-path="url(#p11ec2fb238)" style="fill: none; stroke: #e6e6e6; stroke-width: 0.8; stroke-linecap: square"/>
     </g>
     <g id="line2d_2">
      <defs>
       <path id="mf8fd7adcf2" d="M 0 0 
L 0 3.5 
" style="stroke: #000000; stroke-width: 0.8"/>
      </defs>
      <g>
       <use xlink:href="#mf8fd7adcf2" x="61.746591" y="316.6" style="stroke: #000000; stroke-width: 0.8"/>
      </g>
     </g>
     <g id="text_1">
      <!-- 0.0 -->
      <g transform="translate(53.795028 331.198437) scale(0.1 -0.1)">
       <defs>
        <path id="DejaVuSans-30" d="M 2034 4250 
Q 1547 4250 1301 3770 
Q 1056 3291 1056 2328 
Q 1056 1369 1301 889 
Q 1547 409 2034 409 
Q 2525 409 2770 889 
Q 3016 1369 3016 2328 
Q 3016 3291 2770 3770 
Q 2525 4250 2034 4250 
z
M 2034 4750 
Q 2819 4750 3233 4129 
Q 3647 3509 3647 2328 
Q 3647 1150 3233 529 
Q 2819 -91 2034 -91 
Q 1250 -91 836 529 
Q 422 1150 422 2328 
Q 422 3509 836 4129 
Q 1250 4750 2034 4750 
z
" transform="scale(0.015625)"/>
        <path id="DejaVuSans-2e" d="M 684 794 
L 1344 794 
L 1344 0 
L 684 0 
L 684 794 
z
" transform="scale(0.015625)"/>
       </defs>
       <use xlink:href="#DejaVuSans-30"/>
       <use xlink:href="#DejaVuSans-2e" transform="translate(63.623047 0)"/>
       <use xlink:href="#DejaVuSans-30" transform="translate(95.410156 0)"/>
      </g>
     </g>
    </g>
    <g id="xtick_2">
     <g id="line2d_3">
      <path d="M 133.607955 316.6 
L 133.607955 48.6 
" clip-path="url(#p11ec2fb238)" style="fill: none; stroke: #e6e6e6; stroke-width: 0.8; stroke-linecap: square"/>
     </g>
     <g id="line2d_4">
      <g>
       <use xlink:href="#mf8fd7adcf2" x="133.607955" y="316.6" style="stroke: #000000; stroke-width: 0.8"/>
      </g>
     </g>
     <g id="text_2">
      <!-- 0.2 -->
      <g transform="translate(125.656392 331.198437) scale(0.1 -0.1)">
       <defs>
        <path id="DejaVuSans-32" d="M 1228 531 
L 3431 531 
L 3431 0 
L 469 0 
L 469 531 
Q 828 903 1448 1529 
Q 2069 2156 2228 2338 
Q 2531 2678 2651 2914 
Q 2772 3150 2772 3378 
Q 2772 3750 2511 3984 
Q 2250 4219 1831 4219 
Q 1534 4219 1204 4116 
Q 875 4013 500 3803 
L 500 4441 
Q 881 4594 1212 4672 
Q 1544 4750 1819 4750 
Q 2544 4750 2975 4387 
Q 3406 4025 3406 3419 
Q 3406 3131 3298 2873 
Q 3191 2616 2906 2266 
Q 2828 2175 2409 1742 
Q 1991 1309 1228 531 
z
" transform="scale(0.015625)"/>
       </defs>
       <use xlink:href="#DejaVuSans-30"/>
       <use xlink:href="#DejaVuSans-2e" transform="translate(63.623047 0)"/>
       <use xlink:href="#DejaVuSans-32" transform="translate(95.410156 0)"/>
      </g>
     </g>
    </g>
    <g id="xtick_3">
     <g id="line2d_5">
      <path d="M 205.469318 316.6 
L 205.469318 48.6 
" clip-path="url(#p11ec2fb238)" style="fill: none; stroke: #e6e6e6; stroke-width: 0.8; stroke-linecap: square"/>
     </g>
     <g id="line2d_6">
      <g>
       <use xlink:href="#mf8fd7adcf2" x="205.469318" y="316.6" style="stroke: #000000; stroke-width: 0.8"/>
      </g>
     </g>
     <g id="text_3">
      <!-- 0.4 -->
      <g transform="translate(197.517756 331.198437) scale(0.1 -0.1)">
       <defs>
        <path id="DejaVuSans-34" d="M 2419 4116 
L 825 1625 
L 2419 1625 
L 2419 4116 
z
M 2253 4666 
L 3047 4666 
L 3047 1625 
L 3713 1625 
L 3713 1100 
L 3047 1100 
L 3047 0 
L 2419 0 
L 2419 1100 
L 313 1100 
L 313 1709 
L 2253 4666 
z
" transform="scale(0.015625)"/>
       </defs>
       <use xlink:href="#DejaVuSans-30"/>
       <use xlink:href="#DejaVuSans-2e" transform="translate(63.623047 0)"/>
       <use xlink:href="#DejaVuSans-34" transform="translate(95.410156 0)"/>
      </g>
     </g>
    </g>
    <g id="xtick_4">
     <g id="line2d_7">
      <path d="M 277.330682 316.6 
L 277.330682 48.6 
" clip-path="url(#p11ec2fb238)" style="fill: none; stroke: #e6e6e6; stroke-width: 0.8; stroke-linecap: square"/>
     </g>
     <g id="line2d_8">
      <g>
       <use xlink:href="#mf8fd7adcf2" x="277.330682" y="316.6" style="stroke: #000000; stroke-width: 0.8"/>
      </g>
     </g>
     <g id="text_4">
      <!-- 0.6 -->
      <g transform="translate(269.379119 331.198437) scale(0.1 -0.1)">
       <defs>
        <path id="DejaVuSans-36" d="M 2113 2584 
Q 1688 2584 1439 2293 
Q 1191 2003 1191 1497 
Q 1191 994 1439 701 
Q 1688 409 2113 409 
Q 2538 409 2786 701 
Q 3034 994 3034 1497 
Q 3034 2003 2786 2293 
Q 2538 2584 2113 2584 
z
M 3366 4563 
L 3366 3988 
Q 3128 4100 2886 4159 
Q 2644 4219 2406 4219 
Q 1781 4219 1451 3797 
Q 1122 3375 1075 2522 
Q 1259 2794 1537 2939 
Q 1816 3084 2150 3084 
Q 2853 3084 3261 2657 
Q 3669 2231 3669 1497 
Q 3669 778 3244 343 
Q 2819 -91 2113 -91 
Q 1303 -91 875 529 
Q 447 1150 447 2328 
Q 447 3434 972 4092 
Q 1497 4750 2381 4750 
Q 2619 4750 2861 4703 
Q 3103 4656 3366 4563 
z
" transform="scale(0.015625)"/>
       </defs>
       <use xlink:href="#DejaVuSans-30"/>
       <use xlink:href="#DejaVuSans-2e" transform="translate(63.623047 0)"/>
       <use xlink:href="#DejaVuSans-36" transform="translate(95.410156 0)"/>
      </g>
     </g>
    </g>
    <g id="xtick_5">
     <g id="line2d_9">
      <path d="M 349.192045 316.6 
L 349.192045 48.6 
" clip-path="url(#p11ec2fb238)" style="fill: none; stroke: #e6e6e6; stroke-width: 0.8; stroke-linecap: square"/>
     </g>
     <g id="line2d_10">
      <g>
       <use xlink:href="#mf8fd7adcf2" x="349.192045" y="316.6" style="stroke: #000000; stroke-width: 0.8"/>
      </g>
     </g>
     <g id="text_5">
      <!-- 0.8 -->
      <g transform="translate(341.240483 331.198437) scale(0.1 -0.1)">
       <defs>
        <path id="DejaVuSans-38" d="M 2034 2216 
Q 1584 2216 1326 1975 
Q 1069 1734 1069 1313 
Q 1069 891 1326 650 
Q 1584 409 2034 409 
Q 2484 409 2743 651 
Q 3003 894 3003 1313 
Q 3003 1734 2745 1975 
Q 2488 2216 2034 2216 
z
M 1403 2484 
Q 997 2584 770 2862 
Q 544 3141 544 3541 
Q 544 4100 942 4425 
Q 1341 4750 2034 4750 
Q 2731 4750 3128 4425 
Q 3525 4100 3525 3541 
Q 3525 3141 3298 2862 
Q 3072 2584 2669 2484 
Q 3125 2378 3379 2068 
Q 3634 1759 3634 1313 
Q 3634 634 3220 271 
Q 2806 -91 2034 -91 
Q 1263 -91 848 271 
Q 434 634 434 1313 
Q 434 1759 690 2068 
Q 947 2378 1403 2484 
z
M 1172 3481 
Q 1172 3119 1398 2916 
Q 1625 2713 2034 2713 
Q 2441 2713 2670 2916 
Q 2900 3119 2900 3481 
Q 2900 3844 2670 4047 
Q 2441 4250 2034 4250 
Q 1625 4250 1398 4047 
Q 1172 3844 1172 3481 
z
" transform="scale(0.015625)"/>
       </defs>
       <use xlink:href="#DejaVuSans-30"/>
       <use xlink:href="#DejaVuSans-2e" transform="translate(63.623047 0)"/>
       <use xlink:href="#DejaVuSans-38" transform="translate(95.410156 0)"/>
      </g>
     </g>
    </g>
    <g id="xtick_6">
     <g id="line2d_11">
      <path d="M 421.053409 316.6 
L 421.053409 48.6 
" clip-path="url(#p11ec2fb238)" style="fill: none; stroke: #e6e6e6; stroke-width: 0.8; stroke-linecap: square"/>
     </g>
     <g id="line2d_12">
      <g>
       <use xlink:href="#mf8fd7adcf2" x="421.053409" y="316.6" style="stroke: #000000; stroke-width: 0.8"/>
      </g>
     </g>
     <g id="text_6">
      <!-- 1.0 -->
      <g transform="translate(413.101847 331.198437) scale(0.1 -0.1)">
       <defs>
        <path id="DejaVuSans-31" d="M 794 531 
L 1825 531 
L 1825 4091 
L 703 3866 
L 703 4441 
L 1819 4666 
L 2450 4666 
L 2450 531 
L 3481 531 
L 3481 0 
L 794 0 
L 794 531 
z
" transform="scale(0.015625)"/>
       </defs>
       <use xlink:href="#DejaVuSans-31"/>
       <use xlink:href="#DejaVuSans-2e" transform="translate(63.623047 0)"/>
       <use xlink:href="#DejaVuSans-30" transform="translate(95.410156 0)"/>
      </g>
     </g>
    </g>
    <g id="text_7">
     <!-- Mean predicted 24h ICU death risk -->
     <g transform="translate(154.56875 344.876562) scale(0.1 -0.1)">
      <defs>
       <path id="DejaVuSans-4d" d="M 628 4666 
L 1569 4666 
L 2759 1491 
L 3956 4666 
L 4897 4666 
L 4897 0 
L 4281 0 
L 4281 4097 
L 3078 897 
L 2444 897 
L 1241 4097 
L 1241 0 
L 628 0 
L 628 4666 
z
" transform="scale(0.015625)"/>
       <path id="DejaVuSans-65" d="M 3597 1894 
L 3597 1613 
L 953 1613 
Q 991 1019 1311 708 
Q 1631 397 2203 397 
Q 2534 397 2845 478 
Q 3156 559 3463 722 
L 3463 178 
Q 3153 47 2828 -22 
Q 2503 -91 2169 -91 
Q 1331 -91 842 396 
Q 353 884 353 1716 
Q 353 2575 817 3079 
Q 1281 3584 2069 3584 
Q 2775 3584 3186 3129 
Q 3597 2675 3597 1894 
z
M 3022 2063 
Q 3016 2534 2758 2815 
Q 2500 3097 2075 3097 
Q 1594 3097 1305 2825 
Q 1016 2553 972 2059 
L 3022 2063 
z
" transform="scale(0.015625)"/>
       <path id="DejaVuSans-61" d="M 2194 1759 
Q 1497 1759 1228 1600 
Q 959 1441 959 1056 
Q 959 750 1161 570 
Q 1363 391 1709 391 
Q 2188 391 2477 730 
Q 2766 1069 2766 1631 
L 2766 1759 
L 2194 1759 
z
M 3341 1997 
L 3341 0 
L 2766 0 
L 2766 531 
Q 2569 213 2275 61 
Q 1981 -91 1556 -91 
Q 1019 -91 701 211 
Q 384 513 384 1019 
Q 384 1609 779 1909 
Q 1175 2209 1959 2209 
L 2766 2209 
L 2766 2266 
Q 2766 2663 2505 2880 
Q 2244 3097 1772 3097 
Q 1472 3097 1187 3025 
Q 903 2953 641 2809 
L 641 3341 
Q 956 3463 1253 3523 
Q 1550 3584 1831 3584 
Q 2591 3584 2966 3190 
Q 3341 2797 3341 1997 
z
" transform="scale(0.015625)"/>
       <path id="DejaVuSans-6e" d="M 3513 2113 
L 3513 0 
L 2938 0 
L 2938 2094 
Q 2938 2591 2744 2837 
Q 2550 3084 2163 3084 
Q 1697 3084 1428 2787 
Q 1159 2491 1159 1978 
L 1159 0 
L 581 0 
L 581 3500 
L 1159 3500 
L 1159 2956 
Q 1366 3272 1645 3428 
Q 1925 3584 2291 3584 
Q 2894 3584 3203 3211 
Q 3513 2838 3513 2113 
z
" transform="scale(0.015625)"/>
       <path id="DejaVuSans-20" transform="scale(0.015625)"/>
       <path id="DejaVuSans-70" d="M 1159 525 
L 1159 -1331 
L 581 -1331 
L 581 3500 
L 1159 3500 
L 1159 2969 
Q 1341 3281 1617 3432 
Q 1894 3584 2278 3584 
Q 2916 3584 3314 3078 
Q 3713 2572 3713 1747 
Q 3713 922 3314 415 
Q 2916 -91 2278 -91 
Q 1894 -91 1617 61 
Q 1341 213 1159 525 
z
M 3116 1747 
Q 3116 2381 2855 2742 
Q 2594 3103 2138 3103 
Q 1681 3103 1420 2742 
Q 1159 2381 1159 1747 
Q 1159 1113 1420 752 
Q 1681 391 2138 391 
Q 2594 391 2855 752 
Q 3116 1113 3116 1747 
z
" transform="scale(0.015625)"/>
       <path id="DejaVuSans-72" d="M 2631 2963 
Q 2534 3019 2420 3045 
Q 2306 3072 2169 3072 
Q 1681 3072 1420 2755 
Q 1159 2438 1159 1844 
L 1159 0 
L 581 0 
L 581 3500 
L 1159 3500 
L 1159 2956 
Q 1341 3275 1631 3429 
Q 1922 3584 2338 3584 
Q 2397 3584 2469 3576 
Q 2541 3569 2628 3553 
L 2631 2963 
z
" transform="scale(0.015625)"/>
       <path id="DejaVuSans-64" d="M 2906 2969 
L 2906 4863 
L 3481 4863 
L 3481 0 
L 2906 0 
L 2906 525 
Q 2725 213 2448 61 
Q 2172 -91 1784 -91 
Q 1150 -91 751 415 
Q 353 922 353 1747 
Q 353 2572 751 3078 
Q 1150 3584 1784 3584 
Q 2172 3584 2448 3432 
Q 2725 3281 2906 2969 
z
M 947 1747 
Q 947 1113 1208 752 
Q 1469 391 1925 391 
Q 2381 391 2643 752 
Q 2906 1113 2906 1747 
Q 2906 2381 2643 2742 
Q 2381 3103 1925 3103 
Q 1469 3103 1208 2742 
Q 947 2381 947 1747 
z
" transform="scale(0.015625)"/>
       <path id="DejaVuSans-69" d="M 603 3500 
L 1178 3500 
L 1178 0 
L 603 0 
L 603 3500 
z
M 603 4863 
L 1178 4863 
L 1178 4134 
L 603 4134 
L 603 4863 
z
" transform="scale(0.015625)"/>
       <path id="DejaVuSans-63" d="M 3122 3366 
L 3122 2828 
Q 2878 2963 2633 3030 
Q 2388 3097 2138 3097 
Q 1578 3097 1268 2742 
Q 959 2388 959 1747 
Q 959 1106 1268 751 
Q 1578 397 2138 397 
Q 2388 397 2633 464 
Q 2878 531 3122 666 
L 3122 134 
Q 2881 22 2623 -34 
Q 2366 -91 2075 -91 
Q 1284 -91 818 406 
Q 353 903 353 1747 
Q 353 2603 823 3093 
Q 1294 3584 2113 3584 
Q 2378 3584 2631 3529 
Q 2884 3475 3122 3366 
z
" transform="scale(0.015625)"/>
       <path id="DejaVuSans-74" d="M 1172 4494 
L 1172 3500 
L 2356 3500 
L 2356 3053 
L 1172 3053 
L 1172 1153 
Q 1172 725 1289 603 
Q 1406 481 1766 481 
L 2356 481 
L 2356 0 
L 1766 0 
Q 1100 0 847 248 
Q 594 497 594 1153 
L 594 3053 
L 172 3053 
L 172 3500 
L 594 3500 
L 594 4494 
L 1172 4494 
z
" transform="scale(0.015625)"/>
       <path id="DejaVuSans-68" d="M 3513 2113 
L 3513 0 
L 2938 0 
L 2938 2094 
Q 2938 2591 2744 2837 
Q 2550 3084 2163 3084 
Q 1697 3084 1428 2787 
Q 1159 2491 1159 1978 
L 1159 0 
L 581 0 
L 581 4863 
L 1159 4863 
L 1159 2956 
Q 1366 3272 1645 3428 
Q 1925 3584 2291 3584 
Q 2894 3584 3203 3211 
Q 3513 2838 3513 2113 
z
" transform="scale(0.015625)"/>
       <path id="DejaVuSans-49" d="M 628 4666 
L 1259 4666 
L 1259 0 
L 628 0 
L 628 4666 
z
" transform="scale(0.015625)"/>
       <path id="DejaVuSans-43" d="M 4122 4306 
L 4122 3641 
Q 3803 3938 3442 4084 
Q 3081 4231 2675 4231 
Q 1875 4231 1450 3742 
Q 1025 3253 1025 2328 
Q 1025 1406 1450 917 
Q 1875 428 2675 428 
Q 3081 428 3442 575 
Q 3803 722 4122 1019 
L 4122 359 
Q 3791 134 3420 21 
Q 3050 -91 2638 -91 
Q 1578 -91 968 557 
Q 359 1206 359 2328 
Q 359 3453 968 4101 
Q 1578 4750 2638 4750 
Q 3056 4750 3426 4639 
Q 3797 4528 4122 4306 
z
" transform="scale(0.015625)"/>
       <path id="DejaVuSans-55" d="M 556 4666 
L 1191 4666 
L 1191 1831 
Q 1191 1081 1462 751 
Q 1734 422 2344 422 
Q 2950 422 3222 751 
Q 3494 1081 3494 1831 
L 3494 4666 
L 4128 4666 
L 4128 1753 
Q 4128 841 3676 375 
Q 3225 -91 2344 -91 
Q 1459 -91 1007 375 
Q 556 841 556 1753 
L 556 4666 
z
" transform="scale(0.015625)"/>
       <path id="DejaVuSans-73" d="M 2834 3397 
L 2834 2853 
Q 2591 2978 2328 3040 
Q 2066 3103 1784 3103 
Q 1356 3103 1142 2972 
Q 928 2841 928 2578 
Q 928 2378 1081 2264 
Q 1234 2150 1697 2047 
L 1894 2003 
Q 2506 1872 2764 1633 
Q 3022 1394 3022 966 
Q 3022 478 2636 193 
Q 2250 -91 1575 -91 
Q 1294 -91 989 -36 
Q 684 19 347 128 
L 347 722 
Q 666 556 975 473 
Q 1284 391 1588 391 
Q 1994 391 2212 530 
Q 2431 669 2431 922 
Q 2431 1156 2273 1281 
Q 2116 1406 1581 1522 
L 1381 1569 
Q 847 1681 609 1914 
Q 372 2147 372 2553 
Q 372 3047 722 3315 
Q 1072 3584 1716 3584 
Q 2034 3584 2315 3537 
Q 2597 3491 2834 3397 
z
" transform="scale(0.015625)"/>
       <path id="DejaVuSans-6b" d="M 581 4863 
L 1159 4863 
L 1159 1991 
L 2875 3500 
L 3609 3500 
L 1753 1863 
L 3688 0 
L 2938 0 
L 1159 1709 
L 1159 0 
L 581 0 
L 581 4863 
z
" transform="scale(0.015625)"/>
      </defs>
      <use xlink:href="#DejaVuSans-4d"/>
      <use xlink:href="#DejaVuSans-65" transform="translate(86.279297 0)"/>
      <use xlink:href="#DejaVuSans-61" transform="translate(147.802734 0)"/>
      <use xlink:href="#DejaVuSans-6e" transform="translate(209.082031 0)"/>
      <use xlink:href="#DejaVuSans-20" transform="translate(272.460938 0)"/>
      <use xlink:href="#DejaVuSans-70" transform="translate(304.248047 0)"/>
      <use xlink:href="#DejaVuSans-72" transform="translate(367.724609 0)"/>
      <use xlink:href="#DejaVuSans-65" transform="translate(406.587891 0)"/>
      <use xlink:href="#DejaVuSans-64" transform="translate(468.111328 0)"/>
      <use xlink:href="#DejaVuSans-69" transform="translate(531.587891 0)"/>
      <use xlink:href="#DejaVuSans-63" transform="translate(559.371094 0)"/>
      <use xlink:href="#DejaVuSans-74" transform="translate(614.351562 0)"/>
      <use xlink:href="#DejaVuSans-65" transform="translate(653.560547 0)"/>
      <use xlink:href="#DejaVuSans-64" transform="translate(715.083984 0)"/>
      <use xlink:href="#DejaVuSans-20" transform="translate(778.560547 0)"/>
      <use xlink:href="#DejaVuSans-32" transform="translate(810.347656 0)"/>
      <use xlink:href="#DejaVuSans-34" transform="translate(873.970703 0)"/>
      <use xlink:href="#DejaVuSans-68" transform="translate(937.59375 0)"/>
      <use xlink:href="#DejaVuSans-20" transform="translate(1000.972656 0)"/>
      <use xlink:href="#DejaVuSans-49" transform="translate(1032.759766 0)"/>
      <use xlink:href="#DejaVuSans-43" transform="translate(1062.251953 0)"/>
      <use xlink:href="#DejaVuSans-55" transform="translate(1132.076172 0)"/>
      <use xlink:href="#DejaVuSans-20" transform="translate(1205.269531 0)"/>
      <use xlink:href="#DejaVuSans-64" transform="translate(1237.056641 0)"/>
      <use xlink:href="#DejaVuSans-65" transform="translate(1300.533203 0)"/>
      <use xlink:href="#DejaVuSans-61" transform="translate(1362.056641 0)"/>
      <use xlink:href="#DejaVuSans-74" transform="translate(1423.335938 0)"/>
      <use xlink:href="#DejaVuSans-68" transform="translate(1462.544922 0)"/>
      <use xlink:href="#DejaVuSans-20" transform="translate(1525.923828 0)"/>
      <use xlink:href="#DejaVuSans-72" transform="translate(1557.710938 0)"/>
      <use xlink:href="#DejaVuSans-69" transform="translate(1598.824219 0)"/>
      <use xlink:href="#DejaVuSans-73" transform="translate(1626.607422 0)"/>
      <use xlink:href="#DejaVuSans-6b" transform="translate(1678.707031 0)"/>
     </g>
    </g>
   </g>
   <g id="matplotlib.axis_2">
    <g id="ytick_1">
     <g id="line2d_13">
      <path d="M 43.78125 304.418182 
L 439.01875 304.418182 
" clip-path="url(#p11ec2fb238)" style="fill: none; stroke: #e6e6e6; stroke-width: 0.8; stroke-linecap: square"/>
     </g>
     <g id="line2d_14">
      <defs>
       <path id="m69e15de3bf" d="M 0 0 
L -3.5 0 
" style="stroke: #000000; stroke-width: 0.8"/>
      </defs>
      <g>
       <use xlink:href="#m69e15de3bf" x="43.78125" y="304.418182" style="stroke: #000000; stroke-width: 0.8"/>
      </g>
     </g>
     <g id="text_8">
      <!-- 0.0 -->
      <g transform="translate(20.878125 308.217401) scale(0.1 -0.1)">
       <use xlink:href="#DejaVuSans-30"/>
       <use xlink:href="#DejaVuSans-2e" transform="translate(63.623047 0)"/>
       <use xlink:href="#DejaVuSans-30" transform="translate(95.410156 0)"/>
      </g>
     </g>
    </g>
    <g id="ytick_2">
     <g id="line2d_15">
      <path d="M 43.78125 255.690909 
L 439.01875 255.690909 
" clip-path="url(#p11ec2fb238)" style="fill: none; stroke: #e6e6e6; stroke-width: 0.8; stroke-linecap: square"/>
     </g>
     <g id="line2d_16">
      <g>
       <use xlink:href="#m69e15de3bf" x="43.78125" y="255.690909" style="stroke: #000000; stroke-width: 0.8"/>
      </g>
     </g>
     <g id="text_9">
      <!-- 0.2 -->
      <g transform="translate(20.878125 259.490128) scale(0.1 -0.1)">
       <use xlink:href="#DejaVuSans-30"/>
       <use xlink:href="#DejaVuSans-2e" transform="translate(63.623047 0)"/>
       <use xlink:href="#DejaVuSans-32" transform="translate(95.410156 0)"/>
      </g>
     </g>
    </g>
    <g id="ytick_3">
     <g id="line2d_17">
      <path d="M 43.78125 206.963636 
L 439.01875 206.963636 
" clip-path="url(#p11ec2fb238)" style="fill: none; stroke: #e6e6e6; stroke-width: 0.8; stroke-linecap: square"/>
     </g>
     <g id="line2d_18">
      <g>
       <use xlink:href="#m69e15de3bf" x="43.78125" y="206.963636" style="stroke: #000000; stroke-width: 0.8"/>
      </g>
     </g>
     <g id="text_10">
      <!-- 0.4 -->
      <g transform="translate(20.878125 210.762855) scale(0.1 -0.1)">
       <use xlink:href="#DejaVuSans-30"/>
       <use xlink:href="#DejaVuSans-2e" transform="translate(63.623047 0)"/>
       <use xlink:href="#DejaVuSans-34" transform="translate(95.410156 0)"/>
      </g>
     </g>
    </g>
    <g id="ytick_4">
     <g id="line2d_19">
      <path d="M 43.78125 158.236364 
L 439.01875 158.236364 
" clip-path="url(#p11ec2fb238)" style="fill: none; stroke: #e6e6e6; stroke-width: 0.8; stroke-linecap: square"/>
     </g>
     <g id="line2d_20">
      <g>
       <use xlink:href="#m69e15de3bf" x="43.78125" y="158.236364" style="stroke: #000000; stroke-width: 0.8"/>
      </g>
     </g>
     <g id="text_11">
      <!-- 0.6 -->
      <g transform="translate(20.878125 162.035582) scale(0.1 -0.1)">
       <use xlink:href="#DejaVuSans-30"/>
       <use xlink:href="#DejaVuSans-2e" transform="translate(63.623047 0)"/>
       <use xlink:href="#DejaVuSans-36" transform="translate(95.410156 0)"/>
      </g>
     </g>
    </g>
    <g id="ytick_5">
     <g id="line2d_21">
      <path d="M 43.78125 109.509091 
L 439.01875 109.509091 
" clip-path="url(#p11ec2fb238)" style="fill: none; stroke: #e6e6e6; stroke-width: 0.8; stroke-linecap: square"/>
     </g>
     <g id="line2d_22">
      <g>
       <use xlink:href="#m69e15de3bf" x="43.78125" y="109.509091" style="stroke: #000000; stroke-width: 0.8"/>
      </g>
     </g>
     <g id="text_12">
      <!-- 0.8 -->
      <g transform="translate(20.878125 113.30831) scale(0.1 -0.1)">
       <use xlink:href="#DejaVuSans-30"/>
       <use xlink:href="#DejaVuSans-2e" transform="translate(63.623047 0)"/>
       <use xlink:href="#DejaVuSans-38" transform="translate(95.410156 0)"/>
      </g>
     </g>
    </g>
    <g id="ytick_6">
     <g id="line2d_23">
      <path d="M 43.78125 60.781818 
L 439.01875 60.781818 
" clip-path="url(#p11ec2fb238)" style="fill: none; stroke: #e6e6e6; stroke-width: 0.8; stroke-linecap: square"/>
     </g>
     <g id="line2d_24">
      <g>
       <use xlink:href="#m69e15de3bf" x="43.78125" y="60.781818" style="stroke: #000000; stroke-width: 0.8"/>
      </g>
     </g>
     <g id="text_13">
      <!-- 1.0 -->
      <g transform="translate(20.878125 64.581037) scale(0.1 -0.1)">
       <use xlink:href="#DejaVuSans-31"/>
       <use xlink:href="#DejaVuSans-2e" transform="translate(63.623047 0)"/>
       <use xlink:href="#DejaVuSans-30" transform="translate(95.410156 0)"/>
      </g>
     </g>
    </g>
    <g id="text_14">
     <!-- Observed 24h ICU death rate -->
     <g transform="translate(14.798438 255.770312) rotate(-90) scale(0.1 -0.1)">
      <defs>
       <path id="DejaVuSans-4f" d="M 2522 4238 
Q 1834 4238 1429 3725 
Q 1025 3213 1025 2328 
Q 1025 1447 1429 934 
Q 1834 422 2522 422 
Q 3209 422 3611 934 
Q 4013 1447 4013 2328 
Q 4013 3213 3611 3725 
Q 3209 4238 2522 4238 
z
M 2522 4750 
Q 3503 4750 4090 4092 
Q 4678 3434 4678 2328 
Q 4678 1225 4090 567 
Q 3503 -91 2522 -91 
Q 1538 -91 948 565 
Q 359 1222 359 2328 
Q 359 3434 948 4092 
Q 1538 4750 2522 4750 
z
" transform="scale(0.015625)"/>
       <path id="DejaVuSans-62" d="M 3116 1747 
Q 3116 2381 2855 2742 
Q 2594 3103 2138 3103 
Q 1681 3103 1420 2742 
Q 1159 2381 1159 1747 
Q 1159 1113 1420 752 
Q 1681 391 2138 391 
Q 2594 391 2855 752 
Q 3116 1113 3116 1747 
z
M 1159 2969 
Q 1341 3281 1617 3432 
Q 1894 3584 2278 3584 
Q 2916 3584 3314 3078 
Q 3713 2572 3713 1747 
Q 3713 922 3314 415 
Q 2916 -91 2278 -91 
Q 1894 -91 1617 61 
Q 1341 213 1159 525 
L 1159 0 
L 581 0 
L 581 4863 
L 1159 4863 
L 1159 2969 
z
" transform="scale(0.015625)"/>
       <path id="DejaVuSans-76" d="M 191 3500 
L 800 3500 
L 1894 563 
L 2988 3500 
L 3597 3500 
L 2284 0 
L 1503 0 
L 191 3500 
z
" transform="scale(0.015625)"/>
      </defs>
      <use xlink:href="#DejaVuSans-4f"/>
      <use xlink:href="#DejaVuSans-62" transform="translate(78.710938 0)"/>
      <use xlink:href="#DejaVuSans-73" transform="translate(142.1875 0)"/>
      <use xlink:href="#DejaVuSans-65" transform="translate(194.287109 0)"/>
      <use xlink:href="#DejaVuSans-72" transform="translate(255.810547 0)"/>
      <use xlink:href="#DejaVuSans-76" transform="translate(296.923828 0)"/>
      <use xlink:href="#DejaVuSans-65" transform="translate(356.103516 0)"/>
      <use xlink:href="#DejaVuSans-64" transform="translate(417.626953 0)"/>
      <use xlink:href="#DejaVuSans-20" transform="translate(481.103516 0)"/>
      <use xlink:href="#DejaVuSans-32" transform="translate(512.890625 0)"/>
      <use xlink:href="#DejaVuSans-34" transform="translate(576.513672 0)"/>
      <use xlink:href="#DejaVuSans-68" transform="translate(640.136719 0)"/>
      <use xlink:href="#DejaVuSans-20" transform="translate(703.515625 0)"/>
      <use xlink:href="#DejaVuSans-49" transform="translate(735.302734 0)"/>
      <use xlink:href="#DejaVuSans-43" transform="translate(764.794922 0)"/>
      <use xlink:href="#DejaVuSans-55" transform="translate(834.619141 0)"/>
      <use xlink:href="#DejaVuSans-20" transform="translate(907.8125 0)"/>
      <use xlink:href="#DejaVuSans-64" transform="translate(939.599609 0)"/>
      <use xlink:href="#DejaVuSans-65" transform="translate(1003.076172 0)"/>
      <use xlink:href="#DejaVuSans-61" transform="translate(1064.599609 0)"/>
      <use xlink:href="#DejaVuSans-74" transform="translate(1125.878906 0)"/>
      <use xlink:href="#DejaVuSans-68" transform="translate(1165.087891 0)"/>
      <use xlink:href="#DejaVuSans-20" transform="translate(1228.466797 0)"/>
      <use xlink:href="#DejaVuSans-72" transform="translate(1260.253906 0)"/>
      <use xlink:href="#DejaVuSans-61" transform="translate(1301.367188 0)"/>
      <use xlink:href="#DejaVuSans-74" transform="translate(1362.646484 0)"/>
      <use xlink:href="#DejaVuSans-65" transform="translate(1401.855469 0)"/>
     </g>
    </g>
   </g>
   <g id="line2d_25">
    <path d="M 61.746591 304.418182 
L 421.053409 60.781818 
" clip-path="url(#p11ec2fb238)" style="fill: none; stroke-dasharray: 3.7,1.6; stroke-dashoffset: 0; stroke: #bfbfbf"/>
   </g>
   <g id="line2d_26">
    <path d="M 84.708189 303.373212 
L 95.465459 303.295194 
L 104.236877 302.860169 
L 113.388665 302.614309 
L 123.80555 302.519723 
L 136.253918 301.909781 
L 151.937636 301.160303 
L 173.805497 300.351784 
L 208.521973 297.926067 
L 290.643269 278.979551 
" clip-path="url(#p11ec2fb238)" style="fill: none; stroke: #000000; stroke-width: 1.5; stroke-linecap: square"/>
    <defs>
     <path id="m38aed2abeb" d="M 0 3 
C 0.795609 3 1.55874 2.683901 2.12132 2.12132 
C 2.683901 1.55874 3 0.795609 3 0 
C 3 -0.795609 2.683901 -1.55874 2.12132 -2.12132 
C 1.55874 -2.683901 0.795609 -3 0 -3 
C -0.795609 -3 -1.55874 -2.683901 -2.12132 -2.12132 
C -2.683901 -1.55874 -3 -0.795609 -3 0 
C -3 0.795609 -2.683901 1.55874 -2.12132 2.12132 
C -1.55874 2.683901 -0.795609 3 0 3 
z
" style="stroke: #000000"/>
    </defs>
    <g clip-path="url(#p11ec2fb238)">
     <use xlink:href="#m38aed2abeb" x="84.708189" y="303.373212" style="stroke: #000000"/>
     <use xlink:href="#m38aed2abeb" x="95.465459" y="303.295194" style="stroke: #000000"/>
     <use xlink:href="#m38aed2abeb" x="104.236877" y="302.860169" style="stroke: #000000"/>
     <use xlink:href="#m38aed2abeb" x="113.388665" y="302.614309" style="stroke: #000000"/>
     <use xlink:href="#m38aed2abeb" x="123.80555" y="302.519723" style="stroke: #000000"/>
     <use xlink:href="#m38aed2abeb" x="136.253918" y="301.909781" style="stroke: #000000"/>
     <use xlink:href="#m38aed2abeb" x="151.937636" y="301.160303" style="stroke: #000000"/>
     <use xlink:href="#m38aed2abeb" x="173.805497" y="300.351784" style="stroke: #000000"/>
     <use xlink:href="#m38aed2abeb" x="208.521973" y="297.926067" style="stroke: #000000"/>
     <use xlink:href="#m38aed2abeb" x="290.643269" y="278.979551" style="stroke: #000000"/>
    </g>
   </g>
   <g id="line2d_27">
    <path d="M 66.766422 304.36617 
L 72.483803 304.094288 
L 79.649176 303.838951 
L 89.415628 303.385033 
L 101.820174 302.964194 
L 117.125751 302.548111 
L 137.09505 301.609503 
L 165.679863 300.616572 
L 212.439384 297.999357 
L 315.615704 273.567931 
" clip-path="url(#p11ec2fb238)" style="fill: none; stroke-dasharray: 5.55,2.4; stroke-dashoffset: 0; stroke: #737373; stroke-width: 1.5"/>
    <defs>
     <path id="m03de856da0" d="M -3 3 
L 3 3 
L 3 -3 
L -3 -3 
z
" style="stroke: #737373; stroke-linejoin: miter"/>
    </defs>
    <g clip-path="url(#p11ec2fb238)">
     <use xlink:href="#m03de856da0" x="66.766422" y="304.36617" style="fill: #737373; stroke: #737373; stroke-linejoin: miter"/>
     <use xlink:href="#m03de856da0" x="72.483803" y="304.094288" style="fill: #737373; stroke: #737373; stroke-linejoin: miter"/>
     <use xlink:href="#m03de856da0" x="79.649176" y="303.838951" style="fill: #737373; stroke: #737373; stroke-linejoin: miter"/>
     <use xlink:href="#m03de856da0" x="89.415628" y="303.385033" style="fill: #737373; stroke: #737373; stroke-linejoin: miter"/>
     <use xlink:href="#m03de856da0" x="101.820174" y="302.964194" style="fill: #737373; stroke: #737373; stroke-linejoin: miter"/>
     <use xlink:href="#m03de856da0" x="117.125751" y="302.548111" style="fill: #737373; stroke: #737373; stroke-linejoin: miter"/>
     <use xlink:href="#m03de856da0" x="137.09505" y="301.609503" style="fill: #737373; stroke: #737373; stroke-linejoin: miter"/>
     <use xlink:href="#m03de856da0" x="165.679863" y="300.616572" style="fill: #737373; stroke: #737373; stroke-linejoin: miter"/>
     <use xlink:href="#m03de856da0" x="212.439384" y="297.999357" style="fill: #737373; stroke: #737373; stroke-linejoin: miter"/>
     <use xlink:href="#m03de856da0" x="315.615704" y="273.567931" style="fill: #737373; stroke: #737373; stroke-linejoin: miter"/>
    </g>
   </g>
   <g id="line2d_28">
    <path d="M 84.275911 303.675828 
L 93.190544 303.17462 
L 102.546353 302.645026 
L 115.871761 301.935787 
L 137.555161 301.919214 
L 162.150743 301.165063 
L 182.149557 300.448677 
L 204.261973 299.467578 
L 238.164517 296.878722 
L 307.248429 283.67955 
" clip-path="url(#p11ec2fb238)" style="fill: none; stroke-dasharray: 1.5,2.475; stroke-dashoffset: 0; stroke: #333333; stroke-width: 1.5"/>
    <defs>
     <path id="md220fb7712" d="M 0 -3 
L -3 3 
L 3 3 
z
" style="stroke: #333333; stroke-linejoin: miter"/>
    </defs>
    <g clip-path="url(#p11ec2fb238)">
     <use xlink:href="#md220fb7712" x="84.275911" y="303.675828" style="fill: #333333; stroke: #333333; stroke-linejoin: miter"/>
     <use xlink:href="#md220fb7712" x="93.190544" y="303.17462" style="fill: #333333; stroke: #333333; stroke-linejoin: miter"/>
     <use xlink:href="#md220fb7712" x="102.546353" y="302.645026" style="fill: #333333; stroke: #333333; stroke-linejoin: miter"/>
     <use xlink:href="#md220fb7712" x="115.871761" y="301.935787" style="fill: #333333; stroke: #333333; stroke-linejoin: miter"/>
     <use xlink:href="#md220fb7712" x="137.555161" y="301.919214" style="fill: #333333; stroke: #333333; stroke-linejoin: miter"/>
     <use xlink:href="#md220fb7712" x="162.150743" y="301.165063" style="fill: #333333; stroke: #333333; stroke-linejoin: miter"/>
     <use xlink:href="#md220fb7712" x="182.149557" y="300.448677" style="fill: #333333; stroke: #333333; stroke-linejoin: miter"/>
     <use xlink:href="#md220fb7712" x="204.261973" y="299.467578" style="fill: #333333; stroke: #333333; stroke-linejoin: miter"/>
     <use xlink:href="#md220fb7712" x="238.164517" y="296.878722" style="fill: #333333; stroke: #333333; stroke-linejoin: miter"/>
     <use xlink:href="#md220fb7712" x="307.248429" y="283.67955" style="fill: #333333; stroke: #333333; stroke-linejoin: miter"/>
    </g>
   </g>
   <g id="patch_3">
    <path d="M 43.78125 316.6 
L 43.78125 48.6 
" style="fill: none; stroke: #000000; stroke-width: 0.8; stroke-linejoin: miter; stroke-linecap: square"/>
   </g>
   <g id="patch_4">
    <path d="M 43.78125 316.6 
L 439.01875 316.6 
" style="fill: none; stroke: #000000; stroke-width: 0.8; stroke-linejoin: miter; stroke-linecap: square"/>
   </g>
   <g id="text_15">
    <!-- MIMIC-IV internal -->
    <g transform="translate(190.349375 42.6) scale(0.12 -0.12)">
     <defs>
      <path id="DejaVuSans-2d" d="M 313 2009 
L 1997 2009 
L 1997 1497 
L 313 1497 
L 313 2009 
z
" transform="scale(0.015625)"/>
      <path id="DejaVuSans-56" d="M 1831 0 
L 50 4666 
L 709 4666 
L 2188 738 
L 3669 4666 
L 4325 4666 
L 2547 0 
L 1831 0 
z
" transform="scale(0.015625)"/>
      <path id="DejaVuSans-6c" d="M 603 4863 
L 1178 4863 
L 1178 0 
L 603 0 
L 603 4863 
z
" transform="scale(0.015625)"/>
     </defs>
     <use xlink:href="#DejaVuSans-4d"/>
     <use xlink:href="#DejaVuSans-49" transform="translate(86.279297 0)"/>
     <use xlink:href="#DejaVuSans-4d" transform="translate(115.771484 0)"/>
     <use xlink:href="#DejaVuSans-49" transform="translate(202.050781 0)"/>
     <use xlink:href="#DejaVuSans-43" transform="translate(231.542969 0)"/>
     <use xlink:href="#DejaVuSans-2d" transform="translate(301.367188 0)"/>
     <use xlink:href="#DejaVuSans-49" transform="translate(337.451172 0)"/>
     <use xlink:href="#DejaVuSans-56" transform="translate(366.943359 0)"/>
     <use xlink:href="#DejaVuSans-20" transform="translate(435.351562 0)"/>
     <use xlink:href="#DejaVuSans-69" transform="translate(467.138672 0)"/>
     <use xlink:href="#DejaVuSans-6e" transform="translate(494.921875 0)"/>
     <use xlink:href="#DejaVuSans-74" transform="translate(558.300781 0)"/>
     <use xlink:href="#DejaVuSans-65" transform="translate(597.509766 0)"/>
     <use xlink:href="#DejaVuSans-72" transform="translate(659.033203 0)"/>
     <use xlink:href="#DejaVuSans-6e" transform="translate(698.396484 0)"/>
     <use xlink:href="#DejaVuSans-61" transform="translate(761.775391 0)"/>
     <use xlink:href="#DejaVuSans-6c" transform="translate(823.054688 0)"/>
    </g>
   </g>
  </g>
  <g id="axes_2">
   <g id="patch_5">
    <path d="M 453.31875 316.6 
L 848.55625 316.6 
L 848.55625 48.6 
L 453.31875 48.6 
z
" style="fill: #ffffff"/>
   </g>
   <g id="matplotlib.axis_3">
    <g id="xtick_7">
     <g id="line2d_29">
      <path d="M 471.284091 316.6 
L 471.284091 48.6 
" clip-path="url(#p593c0a61cb)" style="fill: none; stroke: #e6e6e6; stroke-width: 0.8; stroke-linecap: square"/>
     </g>
     <g id="line2d_30">
      <g>
       <use xlink:href="#mf8fd7adcf2" x="471.284091" y="316.6" style="stroke: #000000; stroke-width: 0.8"/>
      </g>
     </g>
     <g id="text_16">
      <!-- 0.0 -->
      <g transform="translate(463.332528 331.198437) scale(0.1 -0.1)">
       <use xlink:href="#DejaVuSans-30"/>
       <use xlink:href="#DejaVuSans-2e" transform="translate(63.623047 0)"/>
       <use xlink:href="#DejaVuSans-30" transform="translate(95.410156 0)"/>
      </g>
     </g>
    </g>
    <g id="xtick_8">
     <g id="line2d_31">
      <path d="M 543.145455 316.6 
L 543.145455 48.6 
" clip-path="url(#p593c0a61cb)" style="fill: none; stroke: #e6e6e6; stroke-width: 0.8; stroke-linecap: square"/>
     </g>
     <g id="line2d_32">
      <g>
       <use xlink:href="#mf8fd7adcf2" x="543.145455" y="316.6" style="stroke: #000000; stroke-width: 0.8"/>
      </g>
     </g>
     <g id="text_17">
      <!-- 0.2 -->
      <g transform="translate(535.193892 331.198437) scale(0.1 -0.1)">
       <use xlink:href="#DejaVuSans-30"/>
       <use xlink:href="#DejaVuSans-2e" transform="translate(63.623047 0)"/>
       <use xlink:href="#DejaVuSans-32" transform="translate(95.410156 0)"/>
      </g>
     </g>
    </g>
    <g id="xtick_9">
     <g id="line2d_33">
      <path d="M 615.006818 316.6 
L 615.006818 48.6 
" clip-path="url(#p593c0a61cb)" style="fill: none; stroke: #e6e6e6; stroke-width: 0.8; stroke-linecap: square"/>
     </g>
     <g id="line2d_34">
      <g>
       <use xlink:href="#mf8fd7adcf2" x="615.006818" y="316.6" style="stroke: #000000; stroke-width: 0.8"/>
      </g>
     </g>
     <g id="text_18">
      <!-- 0.4 -->
      <g transform="translate(607.055256 331.198437) scale(0.1 -0.1)">
       <use xlink:href="#DejaVuSans-30"/>
       <use xlink:href="#DejaVuSans-2e" transform="translate(63.623047 0)"/>
       <use xlink:href="#DejaVuSans-34" transform="translate(95.410156 0)"/>
      </g>
     </g>
    </g>
    <g id="xtick_10">
     <g id="line2d_35">
      <path d="M 686.868182 316.6 
L 686.868182 48.6 
" clip-path="url(#p593c0a61cb)" style="fill: none; stroke: #e6e6e6; stroke-width: 0.8; stroke-linecap: square"/>
     </g>
     <g id="line2d_36">
      <g>
       <use xlink:href="#mf8fd7adcf2" x="686.868182" y="316.6" style="stroke: #000000; stroke-width: 0.8"/>
      </g>
     </g>
     <g id="text_19">
      <!-- 0.6 -->
      <g transform="translate(678.916619 331.198437) scale(0.1 -0.1)">
       <use xlink:href="#DejaVuSans-30"/>
       <use xlink:href="#DejaVuSans-2e" transform="translate(63.623047 0)"/>
       <use xlink:href="#DejaVuSans-36" transform="translate(95.410156 0)"/>
      </g>
     </g>
    </g>
    <g id="xtick_11">
     <g id="line2d_37">
      <path d="M 758.729545 316.6 
L 758.729545 48.6 
" clip-path="url(#p593c0a61cb)" style="fill: none; stroke: #e6e6e6; stroke-width: 0.8; stroke-linecap: square"/>
     </g>
     <g id="line2d_38">
      <g>
       <use xlink:href="#mf8fd7adcf2" x="758.729545" y="316.6" style="stroke: #000000; stroke-width: 0.8"/>
      </g>
     </g>
     <g id="text_20">
      <!-- 0.8 -->
      <g transform="translate(750.777983 331.198437) scale(0.1 -0.1)">
       <use xlink:href="#DejaVuSans-30"/>
       <use xlink:href="#DejaVuSans-2e" transform="translate(63.623047 0)"/>
       <use xlink:href="#DejaVuSans-38" transform="translate(95.410156 0)"/>
      </g>
     </g>
    </g>
    <g id="xtick_12">
     <g id="line2d_39">
      <path d="M 830.590909 316.6 
L 830.590909 48.6 
" clip-path="url(#p593c0a61cb)" style="fill: none; stroke: #e6e6e6; stroke-width: 0.8; stroke-linecap: square"/>
     </g>
     <g id="line2d_40">
      <g>
       <use xlink:href="#mf8fd7adcf2" x="830.590909" y="316.6" style="stroke: #000000; stroke-width: 0.8"/>
      </g>
     </g>
     <g id="text_21">
      <!-- 1.0 -->
      <g transform="translate(822.639347 331.198437) scale(0.1 -0.1)">
       <use xlink:href="#DejaVuSans-31"/>
       <use xlink:href="#DejaVuSans-2e" transform="translate(63.623047 0)"/>
       <use xlink:href="#DejaVuSans-30" transform="translate(95.410156 0)"/>
      </g>
     </g>
    </g>
    <g id="text_22">
     <!-- Mean predicted 24h ICU death risk -->
     <g transform="translate(564.10625 344.876562) scale(0.1 -0.1)">
      <use xlink:href="#DejaVuSans-4d"/>
      <use xlink:href="#DejaVuSans-65" transform="translate(86.279297 0)"/>
      <use xlink:href="#DejaVuSans-61" transform="translate(147.802734 0)"/>
      <use xlink:href="#DejaVuSans-6e" transform="translate(209.082031 0)"/>
      <use xlink:href="#DejaVuSans-20" transform="translate(272.460938 0)"/>
      <use xlink:href="#DejaVuSans-70" transform="translate(304.248047 0)"/>
      <use xlink:href="#DejaVuSans-72" transform="translate(367.724609 0)"/>
      <use xlink:href="#DejaVuSans-65" transform="translate(406.587891 0)"/>
      <use xlink:href="#DejaVuSans-64" transform="translate(468.111328 0)"/>
      <use xlink:href="#DejaVuSans-69" transform="translate(531.587891 0)"/>
      <use xlink:href="#DejaVuSans-63" transform="translate(559.371094 0)"/>
      <use xlink:href="#DejaVuSans-74" transform="translate(614.351562 0)"/>
      <use xlink:href="#DejaVuSans-65" transform="translate(653.560547 0)"/>
      <use xlink:href="#DejaVuSans-64" transform="translate(715.083984 0)"/>
      <use xlink:href="#DejaVuSans-20" transform="translate(778.560547 0)"/>
      <use xlink:href="#DejaVuSans-32" transform="translate(810.347656 0)"/>
      <use xlink:href="#DejaVuSans-34" transform="translate(873.970703 0)"/>
      <use xlink:href="#DejaVuSans-68" transform="translate(937.59375 0)"/>
      <use xlink:href="#DejaVuSans-20" transform="translate(1000.972656 0)"/>
      <use xlink:href="#DejaVuSans-49" transform="translate(1032.759766 0)"/>
      <use xlink:href="#DejaVuSans-43" transform="translate(1062.251953 0)"/>
      <use xlink:href="#DejaVuSans-55" transform="translate(1132.076172 0)"/>
      <use xlink:href="#DejaVuSans-20" transform="translate(1205.269531 0)"/>
      <use xlink:href="#DejaVuSans-64" transform="translate(1237.056641 0)"/>
      <use xlink:href="#DejaVuSans-65" transform="translate(1300.533203 0)"/>
      <use xlink:href="#DejaVuSans-61" transform="translate(1362.056641 0)"/>
      <use xlink:href="#DejaVuSans-74" transform="translate(1423.335938 0)"/>
      <use xlink:href="#DejaVuSans-68" transform="translate(1462.544922 0)"/>
      <use xlink:href="#DejaVuSans-20" transform="translate(1525.923828 0)"/>
      <use xlink:href="#DejaVuSans-72" transform="translate(1557.710938 0)"/>
      <use xlink:href="#DejaVuSans-69" transform="translate(1598.824219 0)"/>
      <use xlink:href="#DejaVuSans-73" transform="translate(1626.607422 0)"/>
      <use xlink:href="#DejaVuSans-6b" transform="translate(1678.707031 0)"/>
     </g>
    </g>
   </g>
   <g id="matplotlib.axis_4">
    <g id="ytick_7">
     <g id="line2d_41">
      <path d="M 453.31875 304.418182 
L 848.55625 304.418182 
" clip-path="url(#p593c0a61cb)" style="fill: none; stroke: #e6e6e6; stroke-width: 0.8; stroke-linecap: square"/>
     </g>
     <g id="line2d_42">
      <g>
       <use xlink:href="#m69e15de3bf" x="453.31875" y="304.418182" style="stroke: #000000; stroke-width: 0.8"/>
      </g>
     </g>
    </g>
    <g id="ytick_8">
     <g id="line2d_43">
      <path d="M 453.31875 255.690909 
L 848.55625 255.690909 
" clip-path="url(#p593c0a61cb)" style="fill: none; stroke: #e6e6e6; stroke-width: 0.8; stroke-linecap: square"/>
     </g>
     <g id="line2d_44">
      <g>
       <use xlink:href="#m69e15de3bf" x="453.31875" y="255.690909" style="stroke: #000000; stroke-width: 0.8"/>
      </g>
     </g>
    </g>
    <g id="ytick_9">
     <g id="line2d_45">
      <path d="M 453.31875 206.963636 
L 848.55625 206.963636 
" clip-path="url(#p593c0a61cb)" style="fill: none; stroke: #e6e6e6; stroke-width: 0.8; stroke-linecap: square"/>
     </g>
     <g id="line2d_46">
      <g>
       <use xlink:href="#m69e15de3bf" x="453.31875" y="206.963636" style="stroke: #000000; stroke-width: 0.8"/>
      </g>
     </g>
    </g>
    <g id="ytick_10">
     <g id="line2d_47">
      <path d="M 453.31875 158.236364 
L 848.55625 158.236364 
" clip-path="url(#p593c0a61cb)" style="fill: none; stroke: #e6e6e6; stroke-width: 0.8; stroke-linecap: square"/>
     </g>
     <g id="line2d_48">
      <g>
       <use xlink:href="#m69e15de3bf" x="453.31875" y="158.236364" style="stroke: #000000; stroke-width: 0.8"/>
      </g>
     </g>
    </g>
    <g id="ytick_11">
     <g id="line2d_49">
      <path d="M 453.31875 109.509091 
L 848.55625 109.509091 
" clip-path="url(#p593c0a61cb)" style="fill: none; stroke: #e6e6e6; stroke-width: 0.8; stroke-linecap: square"/>
     </g>
     <g id="line2d_50">
      <g>
       <use xlink:href="#m69e15de3bf" x="453.31875" y="109.509091" style="stroke: #000000; stroke-width: 0.8"/>
      </g>
     </g>
    </g>
    <g id="ytick_12">
     <g id="line2d_51">
      <path d="M 453.31875 60.781818 
L 848.55625 60.781818 
" clip-path="url(#p593c0a61cb)" style="fill: none; stroke: #e6e6e6; stroke-width: 0.8; stroke-linecap: square"/>
     </g>
     <g id="line2d_52">
      <g>
       <use xlink:href="#m69e15de3bf" x="453.31875" y="60.781818" style="stroke: #000000; stroke-width: 0.8"/>
      </g>
     </g>
    </g>
   </g>
   <g id="line2d_53">
    <path d="M 471.284091 304.418182 
L 830.590909 60.781818 
" clip-path="url(#p593c0a61cb)" style="fill: none; stroke-dasharray: 3.7,1.6; stroke-dashoffset: 0; stroke: #bfbfbf"/>
   </g>
   <g id="line2d_54">
    <path d="M 495.70813 303.794816 
L 507.683745 303.352203 
L 516.980328 302.955923 
L 526.04647 302.524911 
L 535.80975 302.249147 
L 546.959247 301.623437 
L 560.643209 300.979242 
L 579.400038 300.267778 
L 611.036945 297.869365 
L 698.412851 276.209143 
" clip-path="url(#p593c0a61cb)" style="fill: none; stroke: #000000; stroke-width: 1.5; stroke-linecap: square"/>
    <g clip-path="url(#p593c0a61cb)">
     <use xlink:href="#m38aed2abeb" x="495.70813" y="303.794816" style="stroke: #000000"/>
     <use xlink:href="#m38aed2abeb" x="507.683745" y="303.352203" style="stroke: #000000"/>
     <use xlink:href="#m38aed2abeb" x="516.980328" y="302.955923" style="stroke: #000000"/>
     <use xlink:href="#m38aed2abeb" x="526.04647" y="302.524911" style="stroke: #000000"/>
     <use xlink:href="#m38aed2abeb" x="535.80975" y="302.249147" style="stroke: #000000"/>
     <use xlink:href="#m38aed2abeb" x="546.959247" y="301.623437" style="stroke: #000000"/>
     <use xlink:href="#m38aed2abeb" x="560.643209" y="300.979242" style="stroke: #000000"/>
     <use xlink:href="#m38aed2abeb" x="579.400038" y="300.267778" style="stroke: #000000"/>
     <use xlink:href="#m38aed2abeb" x="611.036945" y="297.869365" style="stroke: #000000"/>
     <use xlink:href="#m38aed2abeb" x="698.412851" y="276.209143" style="stroke: #000000"/>
    </g>
   </g>
   <g id="line2d_55">
    <path d="M 484.951716 303.345251 
L 499.223064 302.881782 
L 513.785298 302.724187 
L 531.366164 302.165723 
L 554.146212 301.750918 
L 585.351419 300.814676 
L 630.837628 299.109145 
L 701.308552 294.261163 
L 795.069604 286.692811 
L 830.210579 298.080244 
" clip-path="url(#p593c0a61cb)" style="fill: none; stroke-dasharray: 5.55,2.4; stroke-dashoffset: 0; stroke: #737373; stroke-width: 1.5"/>
    <g clip-path="url(#p593c0a61cb)">
     <use xlink:href="#m03de856da0" x="484.951716" y="303.345251" style="fill: #737373; stroke: #737373; stroke-linejoin: miter"/>
     <use xlink:href="#m03de856da0" x="499.223064" y="302.881782" style="fill: #737373; stroke: #737373; stroke-linejoin: miter"/>
     <use xlink:href="#m03de856da0" x="513.785298" y="302.724187" style="fill: #737373; stroke: #737373; stroke-linejoin: miter"/>
     <use xlink:href="#m03de856da0" x="531.366164" y="302.165723" style="fill: #737373; stroke: #737373; stroke-linejoin: miter"/>
     <use xlink:href="#m03de856da0" x="554.146212" y="301.750918" style="fill: #737373; stroke: #737373; stroke-linejoin: miter"/>
     <use xlink:href="#m03de856da0" x="585.351419" y="300.814676" style="fill: #737373; stroke: #737373; stroke-linejoin: miter"/>
     <use xlink:href="#m03de856da0" x="630.837628" y="299.109145" style="fill: #737373; stroke: #737373; stroke-linejoin: miter"/>
     <use xlink:href="#m03de856da0" x="701.308552" y="294.261163" style="fill: #737373; stroke: #737373; stroke-linejoin: miter"/>
     <use xlink:href="#m03de856da0" x="795.069604" y="286.692811" style="fill: #737373; stroke: #737373; stroke-linejoin: miter"/>
     <use xlink:href="#m03de856da0" x="830.210579" y="298.080244" style="fill: #737373; stroke: #737373; stroke-linejoin: miter"/>
    </g>
   </g>
   <g id="line2d_56">
    <path d="M 502.556802 303.352203 
L 513.374085 302.527228 
L 521.927372 302.082276 
L 529.832188 301.651272 
L 537.735692 301.697619 
L 548.195577 300.323395 
L 563.589809 300.133411 
L 588.986984 298.022249 
L 643.815988 295.609954 
L 761.386494 286.426317 
" clip-path="url(#p593c0a61cb)" style="fill: none; stroke-dasharray: 1.5,2.475; stroke-dashoffset: 0; stroke: #333333; stroke-width: 1.5"/>
    <g clip-path="url(#p593c0a61cb)">
     <use xlink:href="#md220fb7712" x="502.556802" y="303.352203" style="fill: #333333; stroke: #333333; stroke-linejoin: miter"/>
     <use xlink:href="#md220fb7712" x="513.374085" y="302.527228" style="fill: #333333; stroke: #333333; stroke-linejoin: miter"/>
     <use xlink:href="#md220fb7712" x="521.927372" y="302.082276" style="fill: #333333; stroke: #333333; stroke-linejoin: miter"/>
     <use xlink:href="#md220fb7712" x="529.832188" y="301.651272" style="fill: #333333; stroke: #333333; stroke-linejoin: miter"/>
     <use xlink:href="#md220fb7712" x="537.735692" y="301.697619" style="fill: #333333; stroke: #333333; stroke-linejoin: miter"/>
     <use xlink:href="#md220fb7712" x="548.195577" y="300.323395" style="fill: #333333; stroke: #333333; stroke-linejoin: miter"/>
     <use xlink:href="#md220fb7712" x="563.589809" y="300.133411" style="fill: #333333; stroke: #333333; stroke-linejoin: miter"/>
     <use xlink:href="#md220fb7712" x="588.986984" y="298.022249" style="fill: #333333; stroke: #333333; stroke-linejoin: miter"/>
     <use xlink:href="#md220fb7712" x="643.815988" y="295.609954" style="fill: #333333; stroke: #333333; stroke-linejoin: miter"/>
     <use xlink:href="#md220fb7712" x="761.386494" y="286.426317" style="fill: #333333; stroke: #333333; stroke-linejoin: miter"/>
    </g>
   </g>
   <g id="patch_6">
    <path d="M 453.31875 316.6 
L 453.31875 48.6 
" style="fill: none; stroke: #000000; stroke-width: 0.8; stroke-linejoin: miter; stroke-linecap: square"/>
   </g>
   <g id="patch_7">
    <path d="M 453.31875 316.6 
L 848.55625 316.6 
" style="fill: none; stroke: #000000; stroke-width: 0.8; stroke-linejoin: miter; stroke-linecap: square"/>
   </g>
   <g id="text_23">
    <!-- eICU external -->
    <g transform="translate(610.297812 42.6) scale(0.12 -0.12)">
     <defs>
      <path id="DejaVuSans-78" d="M 3513 3500 
L 2247 1797 
L 3578 0 
L 2900 0 
L 1881 1375 
L 863 0 
L 184 0 
L 1544 1831 
L 300 3500 
L 978 3500 
L 1906 2253 
L 2834 3500 
L 3513 3500 
z
" transform="scale(0.015625)"/>
     </defs>
     <use xlink:href="#DejaVuSans-65"/>
     <use xlink:href="#DejaVuSans-49" transform="translate(61.523438 0)"/>
     <use xlink:href="#DejaVuSans-43" transform="translate(91.015625 0)"/>
     <use xlink:href="#DejaVuSans-55" transform="translate(160.839844 0)"/>
     <use xlink:href="#DejaVuSans-20" transform="translate(234.033203 0)"/>
     <use xlink:href="#DejaVuSans-65" transform="translate(265.820312 0)"/>
     <use xlink:href="#DejaVuSans-78" transform="translate(325.59375 0)"/>
     <use xlink:href="#DejaVuSans-74" transform="translate(384.773438 0)"/>
     <use xlink:href="#DejaVuSans-65" transform="translate(423.982422 0)"/>
     <use xlink:href="#DejaVuSans-72" transform="translate(485.505859 0)"/>
     <use xlink:href="#DejaVuSans-6e" transform="translate(524.869141 0)"/>
     <use xlink:href="#DejaVuSans-61" transform="translate(588.248047 0)"/>
     <use xlink:href="#DejaVuSans-6c" transform="translate(649.527344 0)"/>
    </g>
   </g>
   <g id="legend_1">
    <g id="line2d_57">
     <path d="M 460.51875 59.07875 
L 468.51875 59.07875 
L 476.51875 59.07875 
" style="fill: none; stroke: #000000; stroke-width: 1.5; stroke-linecap: square"/>
     <g>
      <use xlink:href="#m38aed2abeb" x="468.51875" y="59.07875" style="stroke: #000000"/>
     </g>
    </g>
    <g id="text_24">
     <!-- P15 double-anchor model (slope 1.0031) -->
     <g transform="translate(482.91875 61.87875) scale(0.08 -0.08)">
      <defs>
       <path id="DejaVuSans-50" d="M 1259 4147 
L 1259 2394 
L 2053 2394 
Q 2494 2394 2734 2622 
Q 2975 2850 2975 3272 
Q 2975 3691 2734 3919 
Q 2494 4147 2053 4147 
L 1259 4147 
z
M 628 4666 
L 2053 4666 
Q 2838 4666 3239 4311 
Q 3641 3956 3641 3272 
Q 3641 2581 3239 2228 
Q 2838 1875 2053 1875 
L 1259 1875 
L 1259 0 
L 628 0 
L 628 4666 
z
" transform="scale(0.015625)"/>
       <path id="DejaVuSans-35" d="M 691 4666 
L 3169 4666 
L 3169 4134 
L 1269 4134 
L 1269 2991 
Q 1406 3038 1543 3061 
Q 1681 3084 1819 3084 
Q 2600 3084 3056 2656 
Q 3513 2228 3513 1497 
Q 3513 744 3044 326 
Q 2575 -91 1722 -91 
Q 1428 -91 1123 -41 
Q 819 9 494 109 
L 494 744 
Q 775 591 1075 516 
Q 1375 441 1709 441 
Q 2250 441 2565 725 
Q 2881 1009 2881 1497 
Q 2881 1984 2565 2268 
Q 2250 2553 1709 2553 
Q 1456 2553 1204 2497 
Q 953 2441 691 2322 
L 691 4666 
z
" transform="scale(0.015625)"/>
       <path id="DejaVuSans-6f" d="M 1959 3097 
Q 1497 3097 1228 2736 
Q 959 2375 959 1747 
Q 959 1119 1226 758 
Q 1494 397 1959 397 
Q 2419 397 2687 759 
Q 2956 1122 2956 1747 
Q 2956 2369 2687 2733 
Q 2419 3097 1959 3097 
z
M 1959 3584 
Q 2709 3584 3137 3096 
Q 3566 2609 3566 1747 
Q 3566 888 3137 398 
Q 2709 -91 1959 -91 
Q 1206 -91 779 398 
Q 353 888 353 1747 
Q 353 2609 779 3096 
Q 1206 3584 1959 3584 
z
" transform="scale(0.015625)"/>
       <path id="DejaVuSans-75" d="M 544 1381 
L 544 3500 
L 1119 3500 
L 1119 1403 
Q 1119 906 1312 657 
Q 1506 409 1894 409 
Q 2359 409 2629 706 
Q 2900 1003 2900 1516 
L 2900 3500 
L 3475 3500 
L 3475 0 
L 2900 0 
L 2900 538 
Q 2691 219 2414 64 
Q 2138 -91 1772 -91 
Q 1169 -91 856 284 
Q 544 659 544 1381 
z
M 1991 3584 
L 1991 3584 
z
" transform="scale(0.015625)"/>
       <path id="DejaVuSans-6d" d="M 3328 2828 
Q 3544 3216 3844 3400 
Q 4144 3584 4550 3584 
Q 5097 3584 5394 3201 
Q 5691 2819 5691 2113 
L 5691 0 
L 5113 0 
L 5113 2094 
Q 5113 2597 4934 2840 
Q 4756 3084 4391 3084 
Q 3944 3084 3684 2787 
Q 3425 2491 3425 1978 
L 3425 0 
L 2847 0 
L 2847 2094 
Q 2847 2600 2669 2842 
Q 2491 3084 2119 3084 
Q 1678 3084 1418 2786 
Q 1159 2488 1159 1978 
L 1159 0 
L 581 0 
L 581 3500 
L 1159 3500 
L 1159 2956 
Q 1356 3278 1631 3431 
Q 1906 3584 2284 3584 
Q 2666 3584 2933 3390 
Q 3200 3197 3328 2828 
z
" transform="scale(0.015625)"/>
       <path id="DejaVuSans-28" d="M 1984 4856 
Q 1566 4138 1362 3434 
Q 1159 2731 1159 2009 
Q 1159 1288 1364 580 
Q 1569 -128 1984 -844 
L 1484 -844 
Q 1016 -109 783 600 
Q 550 1309 550 2009 
Q 550 2706 781 3412 
Q 1013 4119 1484 4856 
L 1984 4856 
z
" transform="scale(0.015625)"/>
       <path id="DejaVuSans-33" d="M 2597 2516 
Q 3050 2419 3304 2112 
Q 3559 1806 3559 1356 
Q 3559 666 3084 287 
Q 2609 -91 1734 -91 
Q 1441 -91 1130 -33 
Q 819 25 488 141 
L 488 750 
Q 750 597 1062 519 
Q 1375 441 1716 441 
Q 2309 441 2620 675 
Q 2931 909 2931 1356 
Q 2931 1769 2642 2001 
Q 2353 2234 1838 2234 
L 1294 2234 
L 1294 2753 
L 1863 2753 
Q 2328 2753 2575 2939 
Q 2822 3125 2822 3475 
Q 2822 3834 2567 4026 
Q 2313 4219 1838 4219 
Q 1578 4219 1281 4162 
Q 984 4106 628 3988 
L 628 4550 
Q 988 4650 1302 4700 
Q 1616 4750 1894 4750 
Q 2613 4750 3031 4423 
Q 3450 4097 3450 3541 
Q 3450 3153 3228 2886 
Q 3006 2619 2597 2516 
z
" transform="scale(0.015625)"/>
       <path id="DejaVuSans-29" d="M 513 4856 
L 1013 4856 
Q 1481 4119 1714 3412 
Q 1947 2706 1947 2009 
Q 1947 1309 1714 600 
Q 1481 -109 1013 -844 
L 513 -844 
Q 928 -128 1133 580 
Q 1338 1288 1338 2009 
Q 1338 2731 1133 3434 
Q 928 4138 513 4856 
z
" transform="scale(0.015625)"/>
      </defs>
      <use xlink:href="#DejaVuSans-50"/>
      <use xlink:href="#DejaVuSans-31" transform="translate(60.302734 0)"/>
      <use xlink:href="#DejaVuSans-35" transform="translate(123.925781 0)"/>
      <use xlink:href="#DejaVuSans-20" transform="translate(187.548828 0)"/>
      <use xlink:href="#DejaVuSans-64" transform="translate(219.335938 0)"/>
      <use xlink:href="#DejaVuSans-6f" transform="translate(282.8125 0)"/>
      <use xlink:href="#DejaVuSans-75" transform="translate(343.994141 0)"/>
      <use xlink:href="#DejaVuSans-62" transform="translate(407.373047 0)"/>
      <use xlink:href="#DejaVuSans-6c" transform="translate(470.849609 0)"/>
      <use xlink:href="#DejaVuSans-65" transform="translate(498.632812 0)"/>
      <use xlink:href="#DejaVuSans-2d" transform="translate(560.15625 0)"/>
      <use xlink:href="#DejaVuSans-61" transform="translate(596.240234 0)"/>
      <use xlink:href="#DejaVuSans-6e" transform="translate(657.519531 0)"/>
      <use xlink:href="#DejaVuSans-63" transform="translate(720.898438 0)"/>
      <use xlink:href="#DejaVuSans-68" transform="translate(775.878906 0)"/>
      <use xlink:href="#DejaVuSans-6f" transform="translate(839.257812 0)"/>
      <use xlink:href="#DejaVuSans-72" transform="translate(900.439453 0)"/>
      <use xlink:href="#DejaVuSans-20" transform="translate(941.552734 0)"/>
      <use xlink:href="#DejaVuSans-6d" transform="translate(973.339844 0)"/>
      <use xlink:href="#DejaVuSans-6f" transform="translate(1070.751953 0)"/>
      <use xlink:href="#DejaVuSans-64" transform="translate(1131.933594 0)"/>
      <use xlink:href="#DejaVuSans-65" transform="translate(1195.410156 0)"/>
      <use xlink:href="#DejaVuSans-6c" transform="translate(1256.933594 0)"/>
      <use xlink:href="#DejaVuSans-20" transform="translate(1284.716797 0)"/>
      <use xlink:href="#DejaVuSans-28" transform="translate(1316.503906 0)"/>
      <use xlink:href="#DejaVuSans-73" transform="translate(1355.517578 0)"/>
      <use xlink:href="#DejaVuSans-6c" transform="translate(1407.617188 0)"/>
      <use xlink:href="#DejaVuSans-6f" transform="translate(1435.400391 0)"/>
      <use xlink:href="#DejaVuSans-70" transform="translate(1496.582031 0)"/>
      <use xlink:href="#DejaVuSans-65" transform="translate(1560.058594 0)"/>
      <use xlink:href="#DejaVuSans-20" transform="translate(1621.582031 0)"/>
      <use xlink:href="#DejaVuSans-31" transform="translate(1653.369141 0)"/>
      <use xlink:href="#DejaVuSans-2e" transform="translate(1716.992188 0)"/>
      <use xlink:href="#DejaVuSans-30" transform="translate(1748.779297 0)"/>
      <use xlink:href="#DejaVuSans-30" transform="translate(1812.402344 0)"/>
      <use xlink:href="#DejaVuSans-33" transform="translate(1876.025391 0)"/>
      <use xlink:href="#DejaVuSans-31" transform="translate(1939.648438 0)"/>
      <use xlink:href="#DejaVuSans-29" transform="translate(2003.271484 0)"/>
     </g>
    </g>
    <g id="line2d_58">
     <path d="M 460.51875 70.82125 
L 468.51875 70.82125 
L 476.51875 70.82125 
" style="fill: none; stroke-dasharray: 5.55,2.4; stroke-dashoffset: 0; stroke: #737373; stroke-width: 1.5"/>
     <g>
      <use xlink:href="#m03de856da0" x="468.51875" y="70.82125" style="fill: #737373; stroke: #737373; stroke-linejoin: miter"/>
     </g>
    </g>
    <g id="text_25">
     <!-- 70-feature high-dimensional reference model (slope 0.0728) -->
     <g transform="translate(482.91875 73.62125) scale(0.08 -0.08)">
      <defs>
       <path id="DejaVuSans-37" d="M 525 4666 
L 3525 4666 
L 3525 4397 
L 1831 0 
L 1172 0 
L 2766 4134 
L 525 4134 
L 525 4666 
z
" transform="scale(0.015625)"/>
       <path id="DejaVuSans-66" d="M 2375 4863 
L 2375 4384 
L 1825 4384 
Q 1516 4384 1395 4259 
Q 1275 4134 1275 3809 
L 1275 3500 
L 2222 3500 
L 2222 3053 
L 1275 3053 
L 1275 0 
L 697 0 
L 697 3053 
L 147 3053 
L 147 3500 
L 697 3500 
L 697 3744 
Q 697 4328 969 4595 
Q 1241 4863 1831 4863 
L 2375 4863 
z
" transform="scale(0.015625)"/>
       <path id="DejaVuSans-67" d="M 2906 1791 
Q 2906 2416 2648 2759 
Q 2391 3103 1925 3103 
Q 1463 3103 1205 2759 
Q 947 2416 947 1791 
Q 947 1169 1205 825 
Q 1463 481 1925 481 
Q 2391 481 2648 825 
Q 2906 1169 2906 1791 
z
M 3481 434 
Q 3481 -459 3084 -895 
Q 2688 -1331 1869 -1331 
Q 1566 -1331 1297 -1286 
Q 1028 -1241 775 -1147 
L 775 -588 
Q 1028 -725 1275 -790 
Q 1522 -856 1778 -856 
Q 2344 -856 2625 -561 
Q 2906 -266 2906 331 
L 2906 616 
Q 2728 306 2450 153 
Q 2172 0 1784 0 
Q 1141 0 747 490 
Q 353 981 353 1791 
Q 353 2603 747 3093 
Q 1141 3584 1784 3584 
Q 2172 3584 2450 3431 
Q 2728 3278 2906 2969 
L 2906 3500 
L 3481 3500 
L 3481 434 
z
" transform="scale(0.015625)"/>
      </defs>
      <use xlink:href="#DejaVuSans-37"/>
      <use xlink:href="#DejaVuSans-30" transform="translate(63.623047 0)"/>
      <use xlink:href="#DejaVuSans-2d" transform="translate(127.246094 0)"/>
      <use xlink:href="#DejaVuSans-66" transform="translate(163.330078 0)"/>
      <use xlink:href="#DejaVuSans-65" transform="translate(198.535156 0)"/>
      <use xlink:href="#DejaVuSans-61" transform="translate(260.058594 0)"/>
      <use xlink:href="#DejaVuSans-74" transform="translate(321.337891 0)"/>
      <use xlink:href="#DejaVuSans-75" transform="translate(360.546875 0)"/>
      <use xlink:href="#DejaVuSans-72" transform="translate(423.925781 0)"/>
      <use xlink:href="#DejaVuSans-65" transform="translate(462.789062 0)"/>
      <use xlink:href="#DejaVuSans-20" transform="translate(524.3125 0)"/>
      <use xlink:href="#DejaVuSans-68" transform="translate(556.099609 0)"/>
      <use xlink:href="#DejaVuSans-69" transform="translate(619.478516 0)"/>
      <use xlink:href="#DejaVuSans-67" transform="translate(647.261719 0)"/>
      <use xlink:href="#DejaVuSans-68" transform="translate(710.738281 0)"/>
      <use xlink:href="#DejaVuSans-2d" transform="translate(774.117188 0)"/>
      <use xlink:href="#DejaVuSans-64" transform="translate(810.201172 0)"/>
      <use xlink:href="#DejaVuSans-69" transform="translate(873.677734 0)"/>
      <use xlink:href="#DejaVuSans-6d" transform="translate(901.460938 0)"/>
      <use xlink:href="#DejaVuSans-65" transform="translate(998.873047 0)"/>
      <use xlink:href="#DejaVuSans-6e" transform="translate(1060.396484 0)"/>
      <use xlink:href="#DejaVuSans-73" transform="translate(1123.775391 0)"/>
      <use xlink:href="#DejaVuSans-69" transform="translate(1175.875 0)"/>
      <use xlink:href="#DejaVuSans-6f" transform="translate(1203.658203 0)"/>
      <use xlink:href="#DejaVuSans-6e" transform="translate(1264.839844 0)"/>
      <use xlink:href="#DejaVuSans-61" transform="translate(1328.21875 0)"/>
      <use xlink:href="#DejaVuSans-6c" transform="translate(1389.498047 0)"/>
      <use xlink:href="#DejaVuSans-20" transform="translate(1417.28125 0)"/>
      <use xlink:href="#DejaVuSans-72" transform="translate(1449.068359 0)"/>
      <use xlink:href="#DejaVuSans-65" transform="translate(1487.931641 0)"/>
      <use xlink:href="#DejaVuSans-66" transform="translate(1549.455078 0)"/>
      <use xlink:href="#DejaVuSans-65" transform="translate(1584.660156 0)"/>
      <use xlink:href="#DejaVuSans-72" transform="translate(1646.183594 0)"/>
      <use xlink:href="#DejaVuSans-65" transform="translate(1685.046875 0)"/>
      <use xlink:href="#DejaVuSans-6e" transform="translate(1746.570312 0)"/>
      <use xlink:href="#DejaVuSans-63" transform="translate(1809.949219 0)"/>
      <use xlink:href="#DejaVuSans-65" transform="translate(1864.929688 0)"/>
      <use xlink:href="#DejaVuSans-20" transform="translate(1926.453125 0)"/>
      <use xlink:href="#DejaVuSans-6d" transform="translate(1958.240234 0)"/>
      <use xlink:href="#DejaVuSans-6f" transform="translate(2055.652344 0)"/>
      <use xlink:href="#DejaVuSans-64" transform="translate(2116.833984 0)"/>
      <use xlink:href="#DejaVuSans-65" transform="translate(2180.310547 0)"/>
      <use xlink:href="#DejaVuSans-6c" transform="translate(2241.833984 0)"/>
      <use xlink:href="#DejaVuSans-20" transform="translate(2269.617188 0)"/>
      <use xlink:href="#DejaVuSans-28" transform="translate(2301.404297 0)"/>
      <use xlink:href="#DejaVuSans-73" transform="translate(2340.417969 0)"/>
      <use xlink:href="#DejaVuSans-6c" transform="translate(2392.517578 0)"/>
      <use xlink:href="#DejaVuSans-6f" transform="translate(2420.300781 0)"/>
      <use xlink:href="#DejaVuSans-70" transform="translate(2481.482422 0)"/>
      <use xlink:href="#DejaVuSans-65" transform="translate(2544.958984 0)"/>
      <use xlink:href="#DejaVuSans-20" transform="translate(2606.482422 0)"/>
      <use xlink:href="#DejaVuSans-30" transform="translate(2638.269531 0)"/>
      <use xlink:href="#DejaVuSans-2e" transform="translate(2701.892578 0)"/>
      <use xlink:href="#DejaVuSans-30" transform="translate(2733.679688 0)"/>
      <use xlink:href="#DejaVuSans-37" transform="translate(2797.302734 0)"/>
      <use xlink:href="#DejaVuSans-32" transform="translate(2860.925781 0)"/>
      <use xlink:href="#DejaVuSans-38" transform="translate(2924.548828 0)"/>
      <use xlink:href="#DejaVuSans-29" transform="translate(2988.171875 0)"/>
     </g>
    </g>
    <g id="line2d_59">
     <path d="M 460.51875 82.56375 
L 468.51875 82.56375 
L 476.51875 82.56375 
" style="fill: none; stroke-dasharray: 1.5,2.475; stroke-dashoffset: 0; stroke: #333333; stroke-width: 1.5"/>
     <g>
      <use xlink:href="#md220fb7712" x="468.51875" y="82.56375" style="fill: #333333; stroke: #333333; stroke-linejoin: miter"/>
     </g>
    </g>
    <g id="text_26">
     <!-- Dynamic SOFA (slope 0.4919) -->
     <g transform="translate(482.91875 85.36375) scale(0.08 -0.08)">
      <defs>
       <path id="DejaVuSans-44" d="M 1259 4147 
L 1259 519 
L 2022 519 
Q 2988 519 3436 956 
Q 3884 1394 3884 2338 
Q 3884 3275 3436 3711 
Q 2988 4147 2022 4147 
L 1259 4147 
z
M 628 4666 
L 1925 4666 
Q 3281 4666 3915 4102 
Q 4550 3538 4550 2338 
Q 4550 1131 3912 565 
Q 3275 0 1925 0 
L 628 0 
L 628 4666 
z
" transform="scale(0.015625)"/>
       <path id="DejaVuSans-79" d="M 2059 -325 
Q 1816 -950 1584 -1140 
Q 1353 -1331 966 -1331 
L 506 -1331 
L 506 -850 
L 844 -850 
Q 1081 -850 1212 -737 
Q 1344 -625 1503 -206 
L 1606 56 
L 191 3500 
L 800 3500 
L 1894 763 
L 2988 3500 
L 3597 3500 
L 2059 -325 
z
" transform="scale(0.015625)"/>
       <path id="DejaVuSans-53" d="M 3425 4513 
L 3425 3897 
Q 3066 4069 2747 4153 
Q 2428 4238 2131 4238 
Q 1616 4238 1336 4038 
Q 1056 3838 1056 3469 
Q 1056 3159 1242 3001 
Q 1428 2844 1947 2747 
L 2328 2669 
Q 3034 2534 3370 2195 
Q 3706 1856 3706 1288 
Q 3706 609 3251 259 
Q 2797 -91 1919 -91 
Q 1588 -91 1214 -16 
Q 841 59 441 206 
L 441 856 
Q 825 641 1194 531 
Q 1563 422 1919 422 
Q 2459 422 2753 634 
Q 3047 847 3047 1241 
Q 3047 1584 2836 1778 
Q 2625 1972 2144 2069 
L 1759 2144 
Q 1053 2284 737 2584 
Q 422 2884 422 3419 
Q 422 4038 858 4394 
Q 1294 4750 2059 4750 
Q 2388 4750 2728 4690 
Q 3069 4631 3425 4513 
z
" transform="scale(0.015625)"/>
       <path id="DejaVuSans-46" d="M 628 4666 
L 3309 4666 
L 3309 4134 
L 1259 4134 
L 1259 2759 
L 3109 2759 
L 3109 2228 
L 1259 2228 
L 1259 0 
L 628 0 
L 628 4666 
z
" transform="scale(0.015625)"/>
       <path id="DejaVuSans-41" d="M 2188 4044 
L 1331 1722 
L 3047 1722 
L 2188 4044 
z
M 1831 4666 
L 2547 4666 
L 4325 0 
L 3669 0 
L 3244 1197 
L 1141 1197 
L 716 0 
L 50 0 
L 1831 4666 
z
" transform="scale(0.015625)"/>
       <path id="DejaVuSans-39" d="M 703 97 
L 703 672 
Q 941 559 1184 500 
Q 1428 441 1663 441 
Q 2288 441 2617 861 
Q 2947 1281 2994 2138 
Q 2813 1869 2534 1725 
Q 2256 1581 1919 1581 
Q 1219 1581 811 2004 
Q 403 2428 403 3163 
Q 403 3881 828 4315 
Q 1253 4750 1959 4750 
Q 2769 4750 3195 4129 
Q 3622 3509 3622 2328 
Q 3622 1225 3098 567 
Q 2575 -91 1691 -91 
Q 1453 -91 1209 -44 
Q 966 3 703 97 
z
M 1959 2075 
Q 2384 2075 2632 2365 
Q 2881 2656 2881 3163 
Q 2881 3666 2632 3958 
Q 2384 4250 1959 4250 
Q 1534 4250 1286 3958 
Q 1038 3666 1038 3163 
Q 1038 2656 1286 2365 
Q 1534 2075 1959 2075 
z
" transform="scale(0.015625)"/>
      </defs>
      <use xlink:href="#DejaVuSans-44"/>
      <use xlink:href="#DejaVuSans-79" transform="translate(77.001953 0)"/>
      <use xlink:href="#DejaVuSans-6e" transform="translate(136.181641 0)"/>
      <use xlink:href="#DejaVuSans-61" transform="translate(199.560547 0)"/>
      <use xlink:href="#DejaVuSans-6d" transform="translate(260.839844 0)"/>
      <use xlink:href="#DejaVuSans-69" transform="translate(358.251953 0)"/>
      <use xlink:href="#DejaVuSans-63" transform="translate(386.035156 0)"/>
      <use xlink:href="#DejaVuSans-20" transform="translate(441.015625 0)"/>
      <use xlink:href="#DejaVuSans-53" transform="translate(472.802734 0)"/>
      <use xlink:href="#DejaVuSans-4f" transform="translate(536.279297 0)"/>
      <use xlink:href="#DejaVuSans-46" transform="translate(614.990234 0)"/>
      <use xlink:href="#DejaVuSans-41" transform="translate(663.384766 0)"/>
      <use xlink:href="#DejaVuSans-20" transform="translate(731.792969 0)"/>
      <use xlink:href="#DejaVuSans-28" transform="translate(763.580078 0)"/>
      <use xlink:href="#DejaVuSans-73" transform="translate(802.59375 0)"/>
      <use xlink:href="#DejaVuSans-6c" transform="translate(854.693359 0)"/>
      <use xlink:href="#DejaVuSans-6f" transform="translate(882.476562 0)"/>
      <use xlink:href="#DejaVuSans-70" transform="translate(943.658203 0)"/>
      <use xlink:href="#DejaVuSans-65" transform="translate(1007.134766 0)"/>
      <use xlink:href="#DejaVuSans-20" transform="translate(1068.658203 0)"/>
      <use xlink:href="#DejaVuSans-30" transform="translate(1100.445312 0)"/>
      <use xlink:href="#DejaVuSans-2e" transform="translate(1164.068359 0)"/>
      <use xlink:href="#DejaVuSans-34" transform="translate(1195.855469 0)"/>
      <use xlink:href="#DejaVuSans-39" transform="translate(1259.478516 0)"/>
      <use xlink:href="#DejaVuSans-31" transform="translate(1323.101562 0)"/>
      <use xlink:href="#DejaVuSans-39" transform="translate(1386.724609 0)"/>
      <use xlink:href="#DejaVuSans-29" transform="translate(1450.347656 0)"/>
     </g>
    </g>
   </g>
  </g>
  <g id="text_27">
   <!-- Calibration curves by decile of predicted risk -->
   <g transform="translate(281.986797 17.077969) scale(0.13 -0.13)">
    <use xlink:href="#DejaVuSans-43"/>
    <use xlink:href="#DejaVuSans-61" transform="translate(69.824219 0)"/>
    <use xlink:href="#DejaVuSans-6c" transform="translate(131.103516 0)"/>
    <use xlink:href="#DejaVuSans-69" transform="translate(158.886719 0)"/>
    <use xlink:href="#DejaVuSans-62" transform="translate(186.669922 0)"/>
    <use xlink:href="#DejaVuSans-72" transform="translate(250.146484 0)"/>
    <use xlink:href="#DejaVuSans-61" transform="translate(291.259766 0)"/>
    <use xlink:href="#DejaVuSans-74" transform="translate(352.539062 0)"/>
    <use xlink:href="#DejaVuSans-69" transform="translate(391.748047 0)"/>
    <use xlink:href="#DejaVuSans-6f" transform="translate(419.53125 0)"/>
    <use xlink:href="#DejaVuSans-6e" transform="translate(480.712891 0)"/>
    <use xlink:href="#DejaVuSans-20" transform="translate(544.091797 0)"/>
    <use xlink:href="#DejaVuSans-63" transform="translate(575.878906 0)"/>
    <use xlink:href="#DejaVuSans-75" transform="translate(630.859375 0)"/>
    <use xlink:href="#DejaVuSans-72" transform="translate(694.238281 0)"/>
    <use xlink:href="#DejaVuSans-76" transform="translate(735.351562 0)"/>
    <use xlink:href="#DejaVuSans-65" transform="translate(794.53125 0)"/>
    <use xlink:href="#DejaVuSans-73" transform="translate(856.054688 0)"/>
    <use xlink:href="#DejaVuSans-20" transform="translate(908.154297 0)"/>
    <use xlink:href="#DejaVuSans-62" transform="translate(939.941406 0)"/>
    <use xlink:href="#DejaVuSans-79" transform="translate(1003.417969 0)"/>
    <use xlink:href="#DejaVuSans-20" transform="translate(1062.597656 0)"/>
    <use xlink:href="#DejaVuSans-64" transform="translate(1094.384766 0)"/>
    <use xlink:href="#DejaVuSans-65" transform="translate(1157.861328 0)"/>
    <use xlink:href="#DejaVuSans-63" transform="translate(1219.384766 0)"/>
    <use xlink:href="#DejaVuSans-69" transform="translate(1274.365234 0)"/>
    <use xlink:href="#DejaVuSans-6c" transform="translate(1302.148438 0)"/>
    <use xlink:href="#DejaVuSans-65" transform="translate(1329.931641 0)"/>
    <use xlink:href="#DejaVuSans-20" transform="translate(1391.455078 0)"/>
    <use xlink:href="#DejaVuSans-6f" transform="translate(1423.242188 0)"/>
    <use xlink:href="#DejaVuSans-66" transform="translate(1484.423828 0)"/>
    <use xlink:href="#DejaVuSans-20" transform="translate(1519.628906 0)"/>
    <use xlink:href="#DejaVuSans-70" transform="translate(1551.416016 0)"/>
    <use xlink:href="#DejaVuSans-72" transform="translate(1614.892578 0)"/>
    <use xlink:href="#DejaVuSans-65" transform="translate(1653.755859 0)"/>
    <use xlink:href="#DejaVuSans-64" transform="translate(1715.279297 0)"/>
    <use xlink:href="#DejaVuSans-69" transform="translate(1778.755859 0)"/>
    <use xlink:href="#DejaVuSans-63" transform="translate(1806.539062 0)"/>
    <use xlink:href="#DejaVuSans-74" transform="translate(1861.519531 0)"/>
    <use xlink:href="#DejaVuSans-65" transform="translate(1900.728516 0)"/>
    <use xlink:href="#DejaVuSans-64" transform="translate(1962.251953 0)"/>
    <use xlink:href="#DejaVuSans-20" transform="translate(2025.728516 0)"/>
    <use xlink:href="#DejaVuSans-72" transform="translate(2057.515625 0)"/>
    <use xlink:href="#DejaVuSans-69" transform="translate(2098.628906 0)"/>
    <use xlink:href="#DejaVuSans-73" transform="translate(2126.412109 0)"/>
    <use xlink:href="#DejaVuSans-6b" transform="translate(2178.511719 0)"/>
   </g>
  </g>
 </g>
 <defs>
  <clipPath id="p11ec2fb238">
   <rect x="43.78125" y="48.6" width="395.2375" height="268"/>
  </clipPath>
  <clipPath id="p593c0a61cb">
   <rect x="453.31875" y="48.6" width="395.2375" height="268"/>
  </clipPath>
 </defs>
</svg>
